<?xml version="1.0" encoding="utf-8"?>
<!-- Generator: Adobe Illustrator 23.0.3, SVG Export Plug-In . SVG Version: 6.00 Build 0)  -->
<svg version="1.1" id="Capa_1" xmlns="http://www.w3.org/2000/svg" xmlns:xlink="http://www.w3.org/1999/xlink" x="0px" y="0px"
	 viewBox="0 0 964.1 964.1" style="enable-background:new 0 0 964.1 964.1;" xml:space="preserve">
<style type="text/css">
	.st0{fill:#272727;}
</style>
<g>
	<path class="st0" d="M850.7,877.6c-0.8,0.1-4.4,0.8-10.2,1.8c-230.9,41.4-273.3,48.5-278.1,49c-11.4,1.3-19.9,0.7-26-2
		c-3.8-1.7-5.9-3.7-6.4-4.6c0.3-1.6,2.3-5.4,3.5-7.7c1.2-2.3,2.6-4.8,3.8-7.6c7.9-18.1,2.4-36.5-14.5-48
		c-12.6-8.6-29.3-12-49.7-10.3c-12.2,1-225.2,36.7-342.3,56.4l-57.4,45.2c134-22.6,389.2-65.4,402.6-66.7c12-1,21.4,0.5,27.1,4.4
		c3.3,2.3,3,3,2.1,5c-0.7,1.5-1.6,3.3-2.6,5.1c-3.8,7.2-9.1,17-7.3,29.2c1.9,13.4,11.8,24.9,27,31.6c8.6,3.8,18.4,5.7,29.8,5.7
		c4.5,0,9.3-0.3,14.3-0.9c9.2-1.1,103.5-17.7,280.2-49.4c5.8-1,9.4-1.7,10.2-1.8c9.5-1.7,15.9-10.8,14.2-20.3
		S860.2,875.9,850.7,877.6z"/>
	<path class="st0" d="M231.1,707.5L82.5,863c-16.4,17.1-27.9,38.3-33.4,61.3l211.1-166C326.2,787.6,379,797,419.5,797
		c71.1,0,104.1-28.8,104.1-28.8c-66.2-34.4-75.6-98.7-75.6-98.7c50.7,21.4,156.2,46.7,156.2,46.7C744.4,622.6,817.6,420,817.6,420
		c-14.5,4-28.4,5.7-41.5,5.7c-65.8,0-111-42.1-111-42.1l183.1-39.9C909.2,218.7,915,0,915,0L358.2,495.3
		C295.1,551.3,250.8,625.4,231.1,707.5z"/>
</g>
</svg>
