<svg id="Layer_1" data-name="Layer 1" xmlns="http://www.w3.org/2000/svg" viewBox="0 0 283 379"><defs><style>.cls-1,.cls-10,.cls-11,.cls-12,.cls-13,.cls-14,.cls-15,.cls-16,.cls-17,.cls-18,.cls-19,.cls-2,.cls-20,.cls-21,.cls-22,.cls-23,.cls-24,.cls-25,.cls-26,.cls-27,.cls-28,.cls-29,.cls-3,.cls-30,.cls-31,.cls-32,.cls-4,.cls-5,.cls-6,.cls-7,.cls-8,.cls-9{fill:none;stroke:#fff;stroke-miterlimit:10;}.cls-1{stroke-opacity:0;stroke-width:0.98px;}.cls-2{stroke-width:1.11px;opacity:0.03;}.cls-10,.cls-11,.cls-12,.cls-13,.cls-14,.cls-15,.cls-16,.cls-17,.cls-18,.cls-19,.cls-2,.cls-20,.cls-21,.cls-22,.cls-23,.cls-24,.cls-25,.cls-26,.cls-27,.cls-28,.cls-29,.cls-3,.cls-30,.cls-31,.cls-4,.cls-5,.cls-6,.cls-7,.cls-8,.cls-9{isolation:isolate;}.cls-3{stroke-width:1.23px;opacity:0.06;}.cls-4{stroke-width:1.36px;opacity:0.1;}.cls-5{stroke-width:1.49px;opacity:0.13;}.cls-6{stroke-width:1.61px;opacity:0.16;}.cls-7{stroke-width:1.74px;opacity:0.19;}.cls-8{stroke-width:1.87px;opacity:0.23;}.cls-9{stroke-width:1.99px;opacity:0.26;}.cls-10{stroke-width:2.12px;opacity:0.29;}.cls-11{stroke-width:2.25px;opacity:0.32;}.cls-12{stroke-width:2.37px;opacity:0.35;}.cls-13{stroke-width:2.5px;opacity:0.39;}.cls-14{stroke-width:2.62px;opacity:0.42;}.cls-15{stroke-width:2.75px;opacity:0.45;}.cls-16{stroke-width:2.88px;opacity:0.48;}.cls-17{stroke-width:3px;opacity:0.52;}.cls-18{stroke-width:3.13px;opacity:0.55;}.cls-19{stroke-width:3.26px;opacity:0.58;}.cls-20{stroke-width:3.38px;opacity:0.61;}.cls-21{stroke-width:3.51px;opacity:0.65;}.cls-22{stroke-width:3.64px;opacity:0.68;}.cls-23{stroke-width:3.76px;opacity:0.71;}.cls-24{stroke-width:3.89px;opacity:0.74;}.cls-25{stroke-width:4.02px;opacity:0.77;}.cls-26{stroke-width:4.14px;opacity:0.81;}.cls-27{stroke-width:4.27px;opacity:0.84;}.cls-28{stroke-width:4.4px;opacity:0.87;}.cls-29{stroke-width:4.52px;opacity:0.9;}.cls-30{stroke-width:4.65px;opacity:0.94;}.cls-31{stroke-width:4.78px;opacity:0.97;}.cls-32{stroke-width:4.9px;}</style></defs><title>background-001</title><rect class="cls-1" x="36.34" y="178.86" width="21.28" height="21.28" transform="translate(-120.24 88.72) rotate(-45)"/><rect class="cls-2" x="31.63" y="174.16" width="30.69" height="30.69" transform="translate(-120.24 88.72) rotate(-45)"/><rect class="cls-3" x="26.92" y="169.45" width="40.1" height="40.1" transform="translate(-120.24 88.72) rotate(-45)"/><rect class="cls-4" x="22.23" y="164.74" width="49.52" height="49.52" transform="translate(-120.23 88.73) rotate(-45)"/><rect class="cls-5" x="17.52" y="160.03" width="58.94" height="58.94" transform="translate(-120.23 88.73) rotate(-45)"/><rect class="cls-6" x="12.81" y="155.33" width="68.35" height="68.35" transform="translate(-120.24 88.72) rotate(-45)"/><rect class="cls-7" x="8.1" y="150.62" width="77.76" height="77.76" transform="translate(-120.24 88.72) rotate(-45)"/><rect class="cls-8" x="3.39" y="145.91" width="87.18" height="87.18" transform="translate(-120.24 88.72) rotate(-45)"/><rect class="cls-9" x="-1.32" y="141.2" width="96.6" height="96.6" transform="translate(-120.24 88.72) rotate(-45)"/><rect class="cls-10" x="-6.03" y="136.5" width="106.01" height="106.01" transform="translate(-120.24 88.72) rotate(-45)"/><rect class="cls-11" x="-10.74" y="131.79" width="115.42" height="115.42" transform="translate(-120.24 88.72) rotate(-45)"/><rect class="cls-12" x="-15.43" y="127.08" width="124.84" height="124.84" transform="translate(-120.23 88.73) rotate(-45)"/><rect class="cls-13" x="-20.14" y="122.37" width="134.26" height="134.26" transform="translate(-120.23 88.73) rotate(-45)"/><rect class="cls-14" x="-24.85" y="117.67" width="143.67" height="143.67" transform="translate(-120.24 88.72) rotate(-45)"/><rect class="cls-15" x="-29.56" y="112.96" width="153.08" height="153.08" transform="translate(-120.24 88.72) rotate(-45)"/><rect class="cls-16" x="-34.27" y="108.25" width="162.5" height="162.5" transform="translate(-120.24 88.72) rotate(-45)"/><rect class="cls-17" x="-38.98" y="103.54" width="171.92" height="171.92" transform="translate(-120.24 88.72) rotate(-45)"/><rect class="cls-18" x="-43.69" y="98.84" width="181.33" height="181.33" transform="translate(-120.24 88.72) rotate(-45)"/><rect class="cls-19" x="-48.4" y="94.13" width="190.74" height="190.74" transform="translate(-120.24 88.72) rotate(-45)"/><rect class="cls-20" x="-53.09" y="89.42" width="200.16" height="200.16" transform="translate(-120.23 88.73) rotate(-45)"/><rect class="cls-21" x="-57.8" y="84.71" width="209.58" height="209.58" transform="translate(-120.23 88.73) rotate(-45)"/><rect class="cls-22" x="-62.51" y="80" width="218.99" height="218.99" transform="translate(-120.23 88.73) rotate(-45)"/><rect class="cls-23" x="-67.22" y="75.3" width="228.4" height="228.4" transform="translate(-120.24 88.72) rotate(-45)"/><rect class="cls-24" x="-71.93" y="70.59" width="237.82" height="237.82" transform="translate(-120.24 88.72) rotate(-45)"/><rect class="cls-25" x="-76.64" y="65.88" width="247.24" height="247.24" transform="translate(-120.24 88.72) rotate(-45)"/><rect class="cls-26" x="-81.35" y="61.17" width="256.65" height="256.65" transform="translate(-120.24 88.72) rotate(-45)"/><rect class="cls-27" x="-86.06" y="56.47" width="266.06" height="266.06" transform="translate(-120.24 88.72) rotate(-45)"/><rect class="cls-28" x="-90.77" y="51.76" width="275.48" height="275.48" transform="translate(-120.24 88.72) rotate(-45)"/><rect class="cls-29" x="-95.46" y="47.05" width="284.9" height="284.9" transform="translate(-120.23 88.73) rotate(-45)"/><rect class="cls-30" x="-100.17" y="42.34" width="294.31" height="294.31" transform="translate(-120.23 88.73) rotate(-45)"/><rect class="cls-31" x="-104.88" y="37.64" width="303.72" height="303.72" transform="translate(-120.24 88.72) rotate(-45)"/><rect class="cls-32" x="-109.59" y="32.93" width="313.14" height="313.14" transform="translate(-120.24 88.72) rotate(-45)"/></svg>