<svg id="Layer_1" data-name="Layer 1" xmlns="http://www.w3.org/2000/svg" viewBox="0 0 186.11 130.52"><defs><style>.cls-1{fill:#272727;}.cls-2{fill:#fff;}</style></defs><title>books-icon</title><path class="cls-1" d="M215,101.8c2.1-2.76,3.25-6.82,3.25-11.45,0-6.57-2.27-11.87-5.94-13.82-.15-.07-104.81-41.25-104.81-41.25a3,3,0,0,0-1.39-.34,3.12,3.12,0,0,0-1.41.34L33.76,68.4a3,3,0,0,0,0,5.43l2.5,1.3a.93.93,0,0,1,.41.4,16.48,16.48,0,0,1,1.69,7.73,15.42,15.42,0,0,1-2.11,8.42,1,1,0,0,1-.8.43h-.3a3.06,3.06,0,0,0-1.39,5.79l2.5,1.3a.93.93,0,0,1,.41.4,16.53,16.53,0,0,1,1.69,7.74,15.91,15.91,0,0,1-2.11,8.41,1,1,0,0,1-.8.44h-.3a3.07,3.07,0,0,0-2.91,4A3,3,0,0,0,33.77,122L137,165.12a3.06,3.06,0,0,0,1.41.35,3.18,3.18,0,0,0,1.41-.34l70.39-36.21a1.14,1.14,0,0,1,.26-.09c4.54-.86,7.71-6.79,7.71-14.42,0-4.63-1.15-8.7-3.25-11.46A1,1,0,0,1,215,101.8ZM38.36,93.06a.89.89,0,0,1,.08-.73,19.2,19.2,0,0,0,2.05-9.07A23.68,23.68,0,0,0,40,78.77a1,1,0,0,1,.36-.94.93.93,0,0,1,.57-.19,1,1,0,0,1,.44.1L137,117a3.63,3.63,0,0,0,.76.27,18.56,18.56,0,0,1,1.84,8.58,17.94,17.94,0,0,1-1.93,8.7L38.83,93.63A.93.93,0,0,1,38.36,93.06Zm.47,24.64a1,1,0,0,1-.47-.57.91.91,0,0,1,.08-.74,19.15,19.15,0,0,0,2.05-9.06,23.78,23.78,0,0,0-.46-4.5,1,1,0,0,1,.36-.94,1,1,0,0,1,.57-.19,1,1,0,0,1,.44.11L137,141.07a2.52,2.52,0,0,0,.71.26,18.35,18.35,0,0,1,1.87,8.63,18,18,0,0,1-1.92,8.68ZM210,122.57a.93.93,0,0,1-.57.31.7.7,0,0,1-.24,0,3.72,3.72,0,0,0-.51.12l-.07,0-.12,0a4.12,4.12,0,0,0-.5.14l-.1,0-.09,0-67.61,34.76a21.45,21.45,0,0,0,1.44-8.09,21.09,21.09,0,0,0-1.78-8.92l68.33-35.13a1,1,0,0,1,.44-.11,1.65,1.65,0,0,1,.37,0,.89.89,0,0,1,.38.12c1.09.61,2.69,3.72,2.69,8.44S210.45,122.1,210,122.57Zm0-24.06a1,1,0,0,1-.58.31.78.78,0,0,1-.21,0l-.36.07-.25.06-.09,0a3,3,0,0,0-.52.15l-.1,0-.09,0L140.21,134a21.35,21.35,0,0,0,1.46-8.13A21.1,21.1,0,0,0,139.9,117l68.32-35.13a1,1,0,0,1,.44-.11l.15,0,.23.05a1.06,1.06,0,0,1,.39.13c1.07.64,2.67,3.76,2.67,8.43S210.45,98,210,98.51Z" transform="translate(-32.1 -34.94)"/><path class="cls-2" d="M38.36,93.06a.89.89,0,0,1,.08-.73,19.2,19.2,0,0,0,2.05-9.07A23.68,23.68,0,0,0,40,78.77a1,1,0,0,1,.36-.94.93.93,0,0,1,.57-.19,1,1,0,0,1,.44.1L137,117a3.63,3.63,0,0,0,.76.27,18.56,18.56,0,0,1,1.84,8.58,17.94,17.94,0,0,1-1.93,8.7L38.83,93.63A.93.93,0,0,1,38.36,93.06Z" transform="translate(-32.1 -34.94)"/><path class="cls-2" d="M38.83,117.7a1,1,0,0,1-.47-.57.91.91,0,0,1,.08-.74,19.15,19.15,0,0,0,2.05-9.06,23.78,23.78,0,0,0-.46-4.5,1,1,0,0,1,.36-.94,1,1,0,0,1,.57-.19,1,1,0,0,1,.44.11L137,141.07a2.52,2.52,0,0,0,.71.26,18.35,18.35,0,0,1,1.87,8.63,18,18,0,0,1-1.92,8.68Z" transform="translate(-32.1 -34.94)"/><path class="cls-2" d="M210,122.57a.93.93,0,0,1-.57.31.7.7,0,0,1-.24,0,3.72,3.72,0,0,0-.51.12l-.07,0-.12,0a4.12,4.12,0,0,0-.5.14l-.1,0-.09,0-67.61,34.76a21.45,21.45,0,0,0,1.44-8.09,21.09,21.09,0,0,0-1.78-8.92l68.33-35.13a1,1,0,0,1,.44-.11,1.65,1.65,0,0,1,.37,0,.89.89,0,0,1,.38.12c1.09.61,2.69,3.72,2.69,8.44S210.45,122.1,210,122.57Z" transform="translate(-32.1 -34.94)"/><path class="cls-2" d="M210,98.51a1,1,0,0,1-.58.31.78.78,0,0,1-.21,0l-.36.07-.25.06-.09,0a3,3,0,0,0-.52.15l-.1,0-.09,0L140.21,134a21.35,21.35,0,0,0,1.46-8.13A21.1,21.1,0,0,0,139.9,117l68.32-35.13a1,1,0,0,1,.44-.11l.15,0,.23.05a1.06,1.06,0,0,1,.39.13c1.07.64,2.67,3.76,2.67,8.43S210.45,98,210,98.51Z" transform="translate(-32.1 -34.94)"/></svg>