<?xml version="1.0" encoding="utf-8"?>
<!-- Generator: Adobe Illustrator 23.0.3, SVG Export Plug-In . SVG Version: 6.00 Build 0)  -->
<svg version="1.1" id="Layer_1" xmlns="http://www.w3.org/2000/svg" xmlns:xlink="http://www.w3.org/1999/xlink" x="0px" y="0px"
	 viewBox="0 0 30 30" style="enable-background:new 0 0 30 30;" xml:space="preserve">
<style type="text/css">
	.st0{fill:#FFFFFF;}
</style>
<path class="st0" d="M13,3C7.5,3,3,7.5,3,13s4.5,10,10,10c2.4,0,4.6-0.9,6.3-2.3l6,6c0.4,0.4,1,0.4,1.4,0s0.4-1,0-1.4c0,0,0,0,0,0
	l-6-6c1.4-1.7,2.3-3.9,2.3-6.3C23,7.5,18.5,3,13,3z M13,5c4.4,0,8,3.6,8,8s-3.6,8-8,8s-8-3.6-8-8S8.6,5,13,5z"/>
</svg>
